<svg xmlns="http://www.w3.org/2000/svg" width="23.199" height="24.624" viewBox="0 0 23.199 24.624"><defs><style>.a{fill:#aaa;}</style></defs><g transform="translate(-0.5 -0.001)"><path class="a" d="M23.7,6.013a2.018,2.018,0,0,0-3.476-1.4L12.34.065a.481.481,0,0,0-.481,0L3.977,4.616A2.019,2.019,0,1,0,2.039,7.975v9.1a.481.481,0,0,0,.24.416l7.88,4.55a2.02,2.02,0,1,0,3.878,0l7.882-4.55a.481.481,0,0,0,.24-.416v-9.1A2.023,2.023,0,0,0,23.7,6.013Zm-22.237,0A1.058,1.058,0,1,1,2.52,7.071,1.059,1.059,0,0,1,1.462,6.013ZM12.1,23.663A1.058,1.058,0,1,1,13.157,22.6,1.059,1.059,0,0,1,12.1,23.663Zm1.457-2.454a2.015,2.015,0,0,0-2.914,0L3,16.8V7.975A2.019,2.019,0,0,0,4.459,5.448L12.1,1.037l7.641,4.411A2.019,2.019,0,0,0,21.2,7.975V16.8ZM21.679,7.071a1.058,1.058,0,1,1,1.058-1.058A1.059,1.059,0,0,1,21.679,7.071Zm0,0" transform="translate(0 0)"/><path class="a" d="M113.106,81.313l-6.348-3.665a.481.481,0,0,0-.481,0l-6.348,3.665a.481.481,0,0,0-.24.416v7.33a.481.481,0,0,0,.24.416l6.348,3.665a.481.481,0,0,0,.481,0l6.348-3.665a.481.481,0,0,0,.24-.416v-7.33A.481.481,0,0,0,113.106,81.313Zm-6.589-2.693,5.386,3.11-5.386,3.11-5.386-3.11ZM107,91.892V89.723a.481.481,0,1,0-.962,0v2.169l-5.386-3.11v-6.22l5.627,3.249a.481.481,0,0,0,.481,0l5.627-3.249v6.22Zm0,0" transform="translate(-94.417 -73.851)"/><path class="a" d="M232.146,275a.481.481,0,1,0,.34.141A.485.485,0,0,0,232.146,275Zm0,0" transform="translate(-220.046 -261.774)"/></g></svg>