<svg xmlns="http://www.w3.org/2000/svg" xmlns:xlink="http://www.w3.org/1999/xlink" width="277.565" height="118.582" viewBox="0 0 277.565 118.582"><defs><style>.a{fill:url(#a);}.b{fill:url(#b);}.c{fill:url(#c);}.d{opacity:0.35;}.e{opacity:0.6;}.e,.f,.g{fill:url(#d);}.f{opacity:0.72;}.g{opacity:0.65;}.h{opacity:0.5;fill:url(#g);}.i{fill:#0ad2f5;font-size:26px;font-family:OpenSans-Semibold, Open Sans;font-weight:600;}.j{filter:url(#bj);}.k{filter:url(#ah);}.l{filter:url(#u);}</style><linearGradient id="a" x1="0.502" y1="1.002" x2="0.502" y2="-0.002" gradientUnits="objectBoundingBox"><stop offset="0" stop-color="#fcee21"/><stop offset="1" stop-color="#ff9d7a"/></linearGradient><linearGradient id="b" x1="0.502" y1="1.002" x2="0.5" y2="0.452" gradientUnits="objectBoundingBox"><stop offset="0" stop-color="#662d91"/><stop offset="0" stop-color="#00d3ff"/><stop offset="1" stop-color="#ffba0c"/></linearGradient><linearGradient id="c" x1="0.502" y1="1.002" x2="0.502" y2="-0.002" gradientUnits="objectBoundingBox"><stop offset="0" stop-color="#fcee21"/><stop offset="1" stop-color="#f15a24"/></linearGradient><linearGradient id="d" x1="0.501" y1="1.003" x2="0.501" y2="-0.002" gradientUnits="objectBoundingBox"><stop offset="0" stop-color="#f15a24"/><stop offset="1" stop-color="#ed1e79"/></linearGradient><linearGradient id="g" x1="0.5" y1="5.765" x2="0.5" y2="0.002" gradientUnits="objectBoundingBox"><stop offset="0" stop-color="#2fc5b3"/><stop offset="1" stop-color="#fff"/></linearGradient><filter id="u" x="232.48" y="27.506" width="15.655" height="35.885" filterUnits="userSpaceOnUse"><feOffset dx="1" dy="1" input="SourceAlpha"/><feGaussianBlur stdDeviation="1" result="v"/><feFlood flood-color="#fff" flood-opacity="0.278"/><feComposite operator="in" in2="v"/><feComposite in="SourceGraphic"/></filter><filter id="ah" x="242.199" y="27.49" width="13.541" height="35.885" filterUnits="userSpaceOnUse"><feOffset dx="1" dy="1" input="SourceAlpha"/><feGaussianBlur stdDeviation="1" result="ai"/><feFlood flood-color="#fff" flood-opacity="0.6"/><feComposite operator="in" in2="ai"/><feComposite in="SourceGraphic"/></filter><filter id="bj" x="249.804" y="27.429" width="15.573" height="35.885" filterUnits="userSpaceOnUse"><feOffset dx="1" dy="1" input="SourceAlpha"/><feGaussianBlur stdDeviation="1" result="bk"/><feFlood flood-color="#fff" flood-opacity="0.478"/><feComposite operator="in" in2="bk"/><feComposite in="SourceGraphic"/></filter></defs><g transform="translate(-839.461 -90.137)"><g transform="translate(839.461 90.137)"><g transform="translate(0 0)"><g transform="translate(0 0)"><g transform="translate(0 0)"><path class="a" d="M21.531-79.1a30.448,30.448,0,0,1,4.6.857q2.164.586,4.058,1.308v2.615H5.481v-2.615a17.107,17.107,0,0,1,3.7-1.353q1.894-.451,3.7-.812v-53.47A28.14,28.14,0,0,1,9-133.517q-1.8-.586-3.517-1.307v-2.615H13.6q3.607,0,7.845-.361t8.115-.361a39.582,39.582,0,0,1,8.656.947,21.454,21.454,0,0,1,7.529,3.2,16.869,16.869,0,0,1,5.32,6,19.4,19.4,0,0,1,2.029,9.333,18.7,18.7,0,0,1-2.074,9.107,18.115,18.115,0,0,1-5.545,6.222,23.888,23.888,0,0,1-7.89,3.562,36.7,36.7,0,0,1-9.107,1.127h-1.4q-.947,0-2.029-.045t-2.074-.135q-.992-.09-1.443-.18Zm6.132-54.372q-2.164,0-3.517.09a18.254,18.254,0,0,0-2.615.361v29.215a4.289,4.289,0,0,0,1.307.225q.857.045,1.8.135t1.848.09h1.443a20.2,20.2,0,0,0,5.951-.857,12.989,12.989,0,0,0,4.914-2.75,13.62,13.62,0,0,0,3.381-4.779,17.261,17.261,0,0,0,1.262-6.943q0-7.394-4.193-11.091T27.663-133.472ZM97.995-86.133q0,1.984.09,3.426t.18,3.066l6.222.9v1.894a33.391,33.391,0,0,1-5,2.074,38.963,38.963,0,0,1-5.275,1.353H91.953a13.858,13.858,0,0,1-1.082-4.554q-.18-2.48-.271-5.455H90.15a12.481,12.481,0,0,1-1.4,3.652,12.268,12.268,0,0,1-2.705,3.291,13.736,13.736,0,0,1-3.922,2.344,13.75,13.75,0,0,1-5.14.9,12.411,12.411,0,0,1-8.972-3.336,11.579,11.579,0,0,1-3.472-8.746,12.622,12.622,0,0,1,1.668-6.808,11.31,11.31,0,0,1,4.914-4.193,28.1,28.1,0,0,1,8.025-2.209q4.779-.676,11.091-1.037a51.792,51.792,0,0,0,.225-6.988,16.777,16.777,0,0,0-.992-5.32,7.44,7.44,0,0,0-2.525-3.426,7.247,7.247,0,0,0-4.373-1.217q-1.262,0-2.84.135a10.486,10.486,0,0,0-3.111.766L72.387-104.8H70.042q-.9-2.705-1.578-5.591a34.648,34.648,0,0,1-.857-5.681,30.476,30.476,0,0,1,7.619-3.246,34.627,34.627,0,0,1,9.333-1.172,17.3,17.3,0,0,1,7.349,1.307A10.387,10.387,0,0,1,96.1-115.8a11.494,11.494,0,0,1,1.894,4.6,28.672,28.672,0,0,1,.451,5.049q0,5.41-.225,10.415T97.995-86.133Zm-17.4,7.3a8.4,8.4,0,0,0,3.967-.9,10.672,10.672,0,0,0,2.885-2.164,13.1,13.1,0,0,0,1.894-2.57,11.837,11.837,0,0,0,.992-2.209v-9.468a55.294,55.294,0,0,0-8.566.541,14.4,14.4,0,0,0-5.23,1.713,6.244,6.244,0,0,0-2.615,2.931,10.5,10.5,0,0,0-.721,4.013,8.441,8.441,0,0,0,1.984,6A7.052,7.052,0,0,0,80.592-78.829Zm82.5,4.508H143.711v-2.254a32.768,32.768,0,0,1,5.32-2.164v-21.37q0-6.853-1.984-10.82t-7.214-3.968a10.748,10.748,0,0,0-4.193.812,11.366,11.366,0,0,0-3.426,2.209,15.34,15.34,0,0,0-2.57,3.156,17.528,17.528,0,0,0-1.713,3.652v26.329a15.969,15.969,0,0,1,5.41,2.164v2.254H113.865v-2.254a30.03,30.03,0,0,1,5.951-2.164v-35.437l-5.951-.721v-2.344a40.666,40.666,0,0,1,5.41-1.8q3.066-.811,6.4-1.443h2.254v10.1h.09a20.013,20.013,0,0,1,5.455-7.123,12.988,12.988,0,0,1,8.611-2.976,22.329,22.329,0,0,1,6.447.857,9.985,9.985,0,0,1,4.734,3.021,14.458,14.458,0,0,1,2.885,5.816,36.016,36.016,0,0,1,.992,9.242v22.813a15.764,15.764,0,0,1,5.951,2.164Zm39.675-8.927a12.865,12.865,0,0,1-1.533,3.787,13.6,13.6,0,0,1-2.66,3.2,12.254,12.254,0,0,1-3.607,2.209,11.666,11.666,0,0,1-4.373.811q-8.927,0-13.345-5.681t-4.418-17.673q0-11.542,5.636-17.583t15.194-6.041a33.564,33.564,0,0,1,5.23.316,24.032,24.032,0,0,1,4.148,1.127v-17.042l-6.853-.721v-2.344a39.542,39.542,0,0,1,6.086-1.894q3.472-.812,6.627-1.353h2.254V-79.46l5.951.721v1.894a42.293,42.293,0,0,1-5.41,2.164,31.456,31.456,0,0,1-5.5,1.262h-2.254l-.812-9.828ZM192.4-78.829a9.169,9.169,0,0,0,7.033-2.8,15.406,15.406,0,0,0,3.607-7.574v-25.428a10.658,10.658,0,0,0-3.607-1.262,32.065,32.065,0,0,0-5.32-.361,10.344,10.344,0,0,0-9.378,5.365q-3.246,5.365-3.246,14.292a35.656,35.656,0,0,0,.631,6.9,19.176,19.176,0,0,0,1.984,5.636,11.082,11.082,0,0,0,3.381,3.832A8.45,8.45,0,0,0,192.4-78.829Z" transform="translate(-5.481 142.128)"/><path class="b" d="M386.2-83.247a12.868,12.868,0,0,1-1.533,3.787,13.6,13.6,0,0,1-2.66,3.2A12.258,12.258,0,0,1,378.4-74.05a11.668,11.668,0,0,1-4.374.811q-8.927,0-13.345-5.681t-4.418-17.673q0-11.542,5.636-17.583t15.194-6.041a33.561,33.561,0,0,1,5.23.316,24.032,24.032,0,0,1,4.148,1.127v-17.042l-6.853-.721v-2.344a39.536,39.536,0,0,1,6.086-1.894q3.472-.812,6.628-1.353h2.255V-79.46l5.951.721v1.894a42.288,42.288,0,0,1-5.41,2.164,31.46,31.46,0,0,1-5.5,1.262h-2.254l-.811-9.828Zm-10.37,4.418a9.168,9.168,0,0,0,7.033-2.8,15.4,15.4,0,0,0,3.607-7.574v-25.428a10.657,10.657,0,0,0-3.607-1.262,32.057,32.057,0,0,0-5.32-.361,10.345,10.345,0,0,0-9.378,5.365q-3.246,5.365-3.246,14.292a35.646,35.646,0,0,0,.631,6.9,19.171,19.171,0,0,0,1.983,5.636,11.082,11.082,0,0,0,3.381,3.832A8.45,8.45,0,0,0,375.832-78.829Z" transform="translate(-188.911 142.189)"/></g></g></g><g transform="translate(218.854 17.944)"><path class="c" d="M40.5,0a6,6,0,0,1,5.191,2.991L56.863,22.273a6,6,0,0,1,0,6.017L45.689,47.571A6,6,0,0,1,40.5,50.563H18.109a6,6,0,0,1-5.191-2.991L1.744,28.29a6,6,0,0,1,0-6.017L12.918,2.991A6,6,0,0,1,18.109,0Z" transform="translate(0.104 0.286)"/><g class="d" transform="translate(0 0)"><g transform="translate(0 0)"><path class="e" d="M293.51,259.972l-8.758,14.763c-2.52,5.567-3.536,4.288-7.38,4.387h-2.045a13.415,13.415,0,0,1,18.183-19.151Z" transform="translate(-238.428 -228.374)"/><path class="f" d="M141.87,224.969H131.11c-6.624.179-5.984-1.106-7.553-3.831l-10.05-17.182c-2.934-5.116-2.66-3.962-.791-7.3l4.364-7.482c2.909,2.667,8.538,4.8,10.226,13.181C130.08,216.13,135.063,220.016,141.87,224.969Z" transform="translate(-111.304 -174.221)"/><path class="g" d="M233.684,134.815c-.341-.214-7.606-10.1-22.792-8.126-7.253.942-11.138-6-13.013-9.97a8.605,8.605,0,0,1,1.1-.07l19.979.075c3.386,0,4.166-.868,6.308,3.964Z" transform="translate(-179.174 -116.648)"/></g></g><g transform="translate(15.545 11.486)"><g transform="translate(0 0)"><g transform="translate(0 0)"><path class="h" d="M236.272,179.4a24.1,24.1,0,0,0-3.409-5.1.511.511,0,0,0-.064.061,23.67,23.67,0,0,1,3.43,5.148A.306.306,0,0,1,236.272,179.4Z" transform="translate(-226.537 -174.3)"/><path class="h" d="M236.272,179.4a24.1,24.1,0,0,0-3.409-5.1.511.511,0,0,0-.064.061,23.67,23.67,0,0,1,3.43,5.148A.306.306,0,0,1,236.272,179.4Z" transform="translate(-226.537 -174.3)"/><path class="h" d="M232.8,336.076c.021.03.043.046.064.076a28.665,28.665,0,0,0,3.494-6.215l-.064-.137A28.832,28.832,0,0,1,232.8,336.076Z" transform="translate(-226.537 -306.114)"/><path class="h" d="M232.8,336.076c.021.03.043.046.064.076a28.665,28.665,0,0,0,3.494-6.215l-.064-.137A28.832,28.832,0,0,1,232.8,336.076Z" transform="translate(-226.537 -306.114)"/><path class="h" d="M267.9,334.126c.021.03.043.046.064.076a28.245,28.245,0,0,0,3.643-6.565l-.064-.137A30.436,30.436,0,0,1,267.9,334.126Z" transform="translate(-254.159 -304.165)"/><path class="h" d="M267.9,334.126c.021.03.043.046.064.076a28.245,28.245,0,0,0,3.643-6.565l-.064-.137A30.436,30.436,0,0,1,267.9,334.126Z" transform="translate(-254.159 -304.165)"/><path class="h" d="M271.521,179.707a24.582,24.582,0,0,0-3.558-5.407.513.513,0,0,0-.064.061,23.932,23.932,0,0,1,3.579,5.468A.366.366,0,0,1,271.521,179.707Z" transform="translate(-254.159 -174.3)"/><path class="h" d="M271.521,179.707a24.582,24.582,0,0,0-3.558-5.407.513.513,0,0,0-.064.061,23.932,23.932,0,0,1,3.579,5.468A.366.366,0,0,1,271.521,179.707Z" transform="translate(-254.159 -174.3)"/><path class="h" d="M304.364,174.4a.505.505,0,0,0-.064.061c11.866,13.755.916,28.712,0,29.885.021.031.043.046.064.076C304.364,204.422,316.805,188.733,304.364,174.4Z" transform="translate(-282.805 -174.385)"/><path class="h" d="M304.364,174.4a.505.505,0,0,0-.064.061c11.866,13.755.916,28.712,0,29.885.021.031.043.046.064.076C304.364,204.422,316.805,188.733,304.364,174.4Z" transform="translate(-282.805 -174.385)"/><path class="h" d="M209.663,174.461c-.021-.015-.021-.046-.043-.061,0,0-14,11.668,0,30.022a.793.793,0,0,1,.064-.076C196.327,186.768,208.641,175.344,209.663,174.461Z" transform="translate(-203.4 -174.385)"/><path class="h" d="M213.371,179.948a23.669,23.669,0,0,0-3.43-5.148c-1.023.9-13.336,12.323,0,29.885a28.83,28.83,0,0,0,3.494-6.276C209.664,190.367,211.219,184.031,213.371,179.948Z" transform="translate(-203.699 -174.724)"/><path class="h" d="M213.371,179.948a23.669,23.669,0,0,0-3.43-5.148c-1.023.9-13.336,12.323,0,29.885a28.83,28.83,0,0,0,3.494-6.276C209.664,190.367,211.219,184.031,213.371,179.948Z" transform="translate(-203.699 -174.724)"/><g class="l" transform="matrix(1, 0, 0, 1, -234.4, -29.43)"><path class="h" d="M213.371,179.948a23.669,23.669,0,0,0-3.43-5.148c-1.023.9-13.336,12.323,0,29.885a28.83,28.83,0,0,0,3.494-6.276C209.664,190.367,211.219,184.031,213.371,179.948Z" transform="translate(30.7 -145.29)"/></g><path class="h" d="M253.162,174.461c-.021-.015-.021-.046-.043-.061a18.545,18.545,0,0,0-3.92,5.1c.021.046.043.076.064.122A18.089,18.089,0,0,1,253.162,174.461Z" transform="translate(-239.443 -174.385)"/><path class="h" d="M249.5,329.837a34.344,34.344,0,0,0,3.856,6.215.779.779,0,0,1,.064-.076,35.209,35.209,0,0,1-3.856-6.276A1.156,1.156,0,0,0,249.5,329.837Z" transform="translate(-239.679 -306.03)"/><path class="h" d="M248.864,208.028a.65.65,0,0,1,.064-.107c-.021-.046-.043-.076-.064-.122a.888.888,0,0,0-.064.122C248.821,207.952,248.843,208,248.864,208.028Z" transform="translate(-239.128 -202.697)"/><path class="h" d="M248.864,208.028a.65.65,0,0,1,.064-.107c-.021-.046-.043-.076-.064-.122a.888.888,0,0,0-.064.122C248.821,207.952,248.843,208,248.864,208.028Z" transform="translate(-239.128 -202.697)"/><path class="h" d="M248.864,208.028a.65.65,0,0,1,.064-.107c-.021-.046-.043-.076-.064-.122a.888.888,0,0,0-.064.122C248.821,207.952,248.843,208,248.864,208.028Z" transform="translate(-239.128 -202.697)"/><path class="h" d="M249.164,328.9l-.064.137.064.137.064-.137Z" transform="translate(-239.365 -305.351)"/><path class="h" d="M249.164,328.9l-.064.137.064.137.064-.137Z" transform="translate(-239.365 -305.351)"/><path class="h" d="M249.164,328.9l-.064.137.064.137.064-.137Z" transform="translate(-239.365 -305.351)"/><path class="h" d="M256.9,180.168a23.557,23.557,0,0,0-3.579-5.468,19.026,19.026,0,0,0-3.92,5.148c3.366,6.961,2,13.755.064,18.461a35.208,35.208,0,0,0,3.856,6.276,29.409,29.409,0,0,0,3.622-6.626C253.49,190.3,254.854,184.2,256.9,180.168Z" transform="translate(-239.601 -174.639)"/><path class="h" d="M256.9,180.168a23.557,23.557,0,0,0-3.579-5.468,19.026,19.026,0,0,0-3.92,5.148c3.366,6.961,2,13.755.064,18.461a35.208,35.208,0,0,0,3.856,6.276,29.409,29.409,0,0,0,3.622-6.626C253.49,190.3,254.854,184.2,256.9,180.168Z" transform="translate(-239.601 -174.639)"/><g class="k" transform="matrix(1, 0, 0, 1, -234.4, -29.43)"><path class="h" d="M256.9,180.168a23.557,23.557,0,0,0-3.579-5.468,19.026,19.026,0,0,0-3.92,5.148c3.366,6.961,2,13.755.064,18.461a35.208,35.208,0,0,0,3.856,6.276,29.409,29.409,0,0,0,3.622-6.626C253.49,190.3,254.854,184.2,256.9,180.168Z" transform="translate(-5.2 -145.21)"/></g><path class="h" d="M249.164,226.924l.064.137c1.939-4.707,3.3-11.5-.064-18.461-.021.03-.043.076-.064.107C252.381,215.561,251.06,222.248,249.164,226.924Z" transform="translate(-239.365 -203.375)"/><path class="h" d="M249.164,226.924l.064.137c1.939-4.707,3.3-11.5-.064-18.461-.021.03-.043.076-.064.107C252.381,215.561,251.06,222.248,249.164,226.924Z" transform="translate(-239.365 -203.375)"/><path class="h" d="M249.164,226.924l.064.137c1.939-4.707,3.3-11.5-.064-18.461-.021.03-.043.076-.064.107C252.381,215.561,251.06,222.248,249.164,226.924Z" transform="translate(-239.365 -203.375)"/><path class="h" d="M249.164,226.924l.064.137c1.939-4.707,3.3-11.5-.064-18.461-.021.03-.043.076-.064.107C252.381,215.561,251.06,222.248,249.164,226.924Z" transform="translate(-239.365 -203.375)"/><path class="h" d="M249.164,226.924l.064.137c1.939-4.707,3.3-11.5-.064-18.461-.021.03-.043.076-.064.107C252.381,215.561,251.06,222.248,249.164,226.924Z" transform="translate(-239.365 -203.375)"/><path class="h" d="M240.626,208.707a.653.653,0,0,0-.064-.107c-2.173,4.082-3.707,10.434.064,18.461l.064-.137C237.026,219.034,238.5,212.774,240.626,208.707Z" transform="translate(-230.891 -203.375)"/><path class="h" d="M240.626,208.707a.653.653,0,0,0-.064-.107c-2.173,4.082-3.707,10.434.064,18.461l.064-.137C237.026,219.034,238.5,212.774,240.626,208.707Z" transform="translate(-230.891 -203.375)"/><path class="h" d="M240.626,208.707a.653.653,0,0,0-.064-.107c-2.173,4.082-3.707,10.434.064,18.461l.064-.137C237.026,219.034,238.5,212.774,240.626,208.707Z" transform="translate(-230.891 -203.375)"/><path class="h" d="M240.626,208.707a.653.653,0,0,0-.064-.107c-2.173,4.082-3.707,10.434.064,18.461l.064-.137C237.026,219.034,238.5,212.774,240.626,208.707Z" transform="translate(-230.891 -203.375)"/><path class="h" d="M241.076,209.3c-2.13,4.067-3.6,10.327.064,18.217C243.036,222.841,244.357,216.154,241.076,209.3Z" transform="translate(-231.341 -203.969)"/><path class="h" d="M241.076,209.3c-2.13,4.067-3.6,10.327.064,18.217C243.036,222.841,244.357,216.154,241.076,209.3Z" transform="translate(-231.341 -203.969)"/><path class="h" d="M241.076,209.3c-2.13,4.067-3.6,10.327.064,18.217C243.036,222.841,244.357,216.154,241.076,209.3Z" transform="translate(-231.341 -203.969)"/><path class="h" d="M241.076,209.3c-2.13,4.067-3.6,10.327.064,18.217C243.036,222.841,244.357,216.154,241.076,209.3Z" transform="translate(-231.341 -203.969)"/><path class="h" d="M241.076,209.3c-2.13,4.067-3.6,10.327.064,18.217C243.036,222.841,244.357,216.154,241.076,209.3Z" transform="translate(-231.341 -203.969)"/><path class="h" d="M241.076,209.3c-2.13,4.067-3.6,10.327.064,18.217C243.036,222.841,244.357,216.154,241.076,209.3Z" transform="translate(-231.341 -203.969)"/><path class="h" d="M285.2,327.537a35.76,35.76,0,0,0,4.026,6.565.792.792,0,0,1,.064-.076,34.942,34.942,0,0,1-4.026-6.626Z" transform="translate(-267.774 -304.08)"/><path class="h" d="M289.033,174.461a.107.107,0,0,1-.043-.061,18.844,18.844,0,0,0-4.09,5.407c.021.046.043.076.064.122A18.821,18.821,0,0,1,289.033,174.461Z" transform="translate(-267.538 -174.385)"/><path class="h" d="M284.564,210.044c.021-.046.043-.076.064-.122-.021-.046-.043-.076-.064-.122-.021.046-.043.076-.064.122A.205.205,0,0,1,284.564,210.044Z" transform="translate(-267.223 -204.393)"/><path class="h" d="M284.564,210.044c.021-.046.043-.076.064-.122-.021-.046-.043-.076-.064-.122-.021.046-.043.076-.064.122A.205.205,0,0,1,284.564,210.044Z" transform="translate(-267.223 -204.393)"/><path class="h" d="M284.564,210.044c.021-.046.043-.076.064-.122-.021-.046-.043-.076-.064-.122-.021.046-.043.076-.064.122A.205.205,0,0,1,284.564,210.044Z" transform="translate(-267.223 -204.393)"/><path class="h" d="M284.964,326.5l-.064.137.064.137.064-.137A.2.2,0,0,1,284.964,326.5Z" transform="translate(-267.538 -303.317)"/><path class="h" d="M284.964,326.5l-.064.137.064.137.064-.137A.2.2,0,0,1,284.964,326.5Z" transform="translate(-267.538 -303.317)"/><path class="h" d="M284.964,326.5l-.064.137.064.137.064-.137A.2.2,0,0,1,284.964,326.5Z" transform="translate(-267.538 -303.317)"/><path class="h" d="M289.19,174.8a19.643,19.643,0,0,0-4.09,5.468c3.11,6.672,1.9,13.16.064,17.791a34.469,34.469,0,0,0,4.026,6.626C290.106,203.5,301.056,188.539,289.19,174.8Z" transform="translate(-267.695 -174.724)"/><path class="h" d="M289.19,174.8a19.643,19.643,0,0,0-4.09,5.468c3.11,6.672,1.9,13.16.064,17.791a34.469,34.469,0,0,0,4.026,6.626C290.106,203.5,301.056,188.539,289.19,174.8Z" transform="translate(-267.695 -174.724)"/><g class="j" transform="matrix(1, 0, 0, 1, -234.4, -29.43)"><path class="h" d="M289.19,174.8a19.643,19.643,0,0,0-4.09,5.468c3.11,6.672,1.9,13.16.064,17.791a34.469,34.469,0,0,0,4.026,6.626C290.106,203.5,301.056,188.539,289.19,174.8Z" transform="translate(-33.3 -145.37)"/></g><path class="h" d="M284.964,228.254l.064.137c1.811-4.631,3.025-11.119-.064-17.791-.021.046-.043.076-.064.122A22.345,22.345,0,0,1,284.964,228.254Z" transform="translate(-267.538 -205.071)"/><path class="h" d="M284.964,228.254l.064.137c1.811-4.631,3.025-11.119-.064-17.791-.021.046-.043.076-.064.122A22.345,22.345,0,0,1,284.964,228.254Z" transform="translate(-267.538 -205.071)"/><path class="h" d="M284.964,228.254l.064.137c1.811-4.631,3.025-11.119-.064-17.791-.021.046-.043.076-.064.122A22.345,22.345,0,0,1,284.964,228.254Z" transform="translate(-267.538 -205.071)"/><path class="h" d="M284.964,228.254l.064.137c1.811-4.631,3.025-11.119-.064-17.791-.021.046-.043.076-.064.122A22.345,22.345,0,0,1,284.964,228.254Z" transform="translate(-267.538 -205.071)"/><path class="h" d="M284.964,228.254l.064.137c1.811-4.631,3.025-11.119-.064-17.791-.021.046-.043.076-.064.122A22.345,22.345,0,0,1,284.964,228.254Z" transform="translate(-267.538 -205.071)"/><path class="h" d="M276.935,210.722c-.021-.046-.043-.076-.064-.122-2.045,4.036-3.409,10.129.064,17.791l.064-.137C273.655,220.729,274.933,214.728,276.935,210.722Z" transform="translate(-259.595 -205.071)"/><path class="h" d="M276.935,210.722c-.021-.046-.043-.076-.064-.122-2.045,4.036-3.409,10.129.064,17.791l.064-.137C273.655,220.729,274.933,214.728,276.935,210.722Z" transform="translate(-259.595 -205.071)"/><path class="h" d="M276.935,210.722c-.021-.046-.043-.076-.064-.122-2.045,4.036-3.409,10.129.064,17.791l.064-.137C273.655,220.729,274.933,214.728,276.935,210.722Z" transform="translate(-259.595 -205.071)"/><path class="h" d="M276.935,210.722c-.021-.046-.043-.076-.064-.122-2.045,4.036-3.409,10.129.064,17.791l.064-.137C273.655,220.729,274.933,214.728,276.935,210.722Z" transform="translate(-259.595 -205.071)"/><path class="h" d="M277.385,211.4c-2,4.006-3.3,10.007.064,17.532A22.162,22.162,0,0,0,277.385,211.4Z" transform="translate(-260.045 -205.749)"/><path class="h" d="M277.385,211.4c-2,4.006-3.3,10.007.064,17.532A22.162,22.162,0,0,0,277.385,211.4Z" transform="translate(-260.045 -205.749)"/><path class="h" d="M277.385,211.4c-2,4.006-3.3,10.007.064,17.532A22.162,22.162,0,0,0,277.385,211.4Z" transform="translate(-260.045 -205.749)"/><path class="h" d="M277.385,211.4c-2,4.006-3.3,10.007.064,17.532A22.162,22.162,0,0,0,277.385,211.4Z" transform="translate(-260.045 -205.749)"/><path class="h" d="M277.385,211.4c-2,4.006-3.3,10.007.064,17.532A22.162,22.162,0,0,0,277.385,211.4Z" transform="translate(-260.045 -205.749)"/><path class="h" d="M277.385,211.4c-2,4.006-3.3,10.007.064,17.532A22.162,22.162,0,0,0,277.385,211.4Z" transform="translate(-260.045 -205.749)"/></g></g></g></g></g><text class="i" transform="translate(976.091 200.719)"><tspan x="-81.536" y="0">Token Wallet</tspan></text></g></svg>