<svg xmlns="http://www.w3.org/2000/svg" xmlns:xlink="http://www.w3.org/1999/xlink" width="165.038" height="41.589" viewBox="0 0 165.038 41.589"><defs><style>.a,.aa,.ab,.ac,.ad,.af,.ag,.ah,.ai,.aj,.ak,.b,.c,.d,.e,.f,.g,.i,.j,.k,.l,.m,.n,.o,.q,.r,.s,.t,.u,.v,.x,.y,.z{opacity:0.5;}.a{fill:url(#a);}.b{fill:url(#c);}.c{fill:url(#e);}.d{fill:url(#g);}.e{fill:url(#i);}.f{fill:url(#k);}.g,.h{fill:url(#l);}.h{opacity:0.96;}.i{fill:url(#o);}.j{fill:url(#p);}.k{fill:url(#q);}.l{fill:url(#s);}.m{fill:url(#t);}.n{fill:url(#v);}.o,.p{fill:url(#w);}.p{opacity:0.81;}.q{fill:url(#z);}.r{fill:url(#aa);}.s{fill:url(#ae);}.t{fill:url(#ah);}.u{fill:url(#ai);}.v{fill:url(#aj);}.al,.w{opacity:0.18;}.w{fill:url(#an);}.x{fill:url(#ao);}.y{fill:url(#ap);}.z{fill:url(#aq);}.aa{fill:url(#as);}.ab{fill:url(#at);}.ac{fill:url(#av);}.ad{fill:url(#aw);}.ae{opacity:0.97;fill:url(#ay);}.af{fill:url(#az);}.ag{fill:url(#ba);}.ah{fill:url(#be);}.ai{fill:url(#bh);}.aj{fill:url(#bi);}.ak{fill:url(#bj);}.al{fill:url(#bn);}.am{fill:url(#bo);}.an{fill:#fff;}.ao{fill:#00d3ff;}.ap{fill:url(#bq);}</style><linearGradient id="a" x1="0.5" y1="5.765" x2="0.5" y2="0.002" gradientUnits="objectBoundingBox"><stop offset="0" stop-color="#fcee21"/><stop offset="1" stop-color="#f15a24"/></linearGradient><linearGradient id="c" x1="0.5" y1="0.999" x2="0.5" y2="-3.727" xlink:href="#a"/><linearGradient id="e" x1="0.495" y1="0.999" x2="0.495" y2="-3.48" gradientUnits="objectBoundingBox"><stop offset="0" stop-color="#f15a24"/><stop offset="1" stop-color="#ed1e79"/></linearGradient><linearGradient id="g" x1="0.496" y1="5.431" x2="0.496" y2="0.002" xlink:href="#e"/><linearGradient id="i" x1="0.5" y1="1" x2="0.5" gradientUnits="objectBoundingBox"><stop offset="0" stop-color="#ed1e79"/><stop offset="1" stop-color="#662d91"/></linearGradient><linearGradient id="k" x1="0.497" y1="1" x2="0.497" y2="0" xlink:href="#a"/><linearGradient id="l" x1="0.502" y1="1.002" x2="0.502" y2="-0.002" xlink:href="#a"/><linearGradient id="o" x1="0.498" y1="5.745" x2="0.498" y2="-0.001" xlink:href="#e"/><linearGradient id="p" x1="0.498" y1="1.001" x2="0.498" y2="-3.725" xlink:href="#e"/><linearGradient id="q" x1="0.525" y1="109.095" x2="0.525" y2="-22.287" xlink:href="#a"/><linearGradient id="s" x1="0.525" y1="109.095" x2="0.525" y2="-22.287" xlink:href="#e"/><linearGradient id="t" x1="0.588" y1="23.639" x2="0.588" y2="-85.841" xlink:href="#a"/><linearGradient id="v" x1="0.588" y1="23.639" x2="0.588" y2="-85.841" xlink:href="#e"/><linearGradient id="w" x1="0.501" y1="1.003" x2="0.501" y2="-0.002" xlink:href="#e"/><linearGradient id="z" x1="0.5" y1="1.344" x2="0.5" y2="-0.282" xlink:href="#a"/><linearGradient id="aa" x1="0.5" y1="1.344" x2="0.5" y2="-0.282" xlink:href="#e"/><linearGradient id="ae" x1="0.504" y1="1.344" x2="0.504" y2="-0.282" xlink:href="#a"/><linearGradient id="ah" x1="0.504" y1="1.344" x2="0.504" y2="-0.282" xlink:href="#e"/><linearGradient id="ai" x1="0.5" y1="1.356" x2="0.5" y2="-0.292" xlink:href="#a"/><linearGradient id="aj" x1="0.5" y1="1.356" x2="0.5" y2="-0.292" xlink:href="#e"/><linearGradient id="an" x1="0.502" y1="1.002" x2="0.5" y2="0.452" gradientUnits="objectBoundingBox"><stop offset="0" stop-color="#662d91"/><stop offset="0" stop-color="#00d3ff" stop-opacity="0"/><stop offset="1" stop-color="#ffba0c"/></linearGradient><linearGradient id="ao" x1="0.498" y1="1.001" x2="0.498" y2="-3.478" xlink:href="#i"/><linearGradient id="ap" x1="0.499" y1="5.428" x2="0.499" y2="-0.001" xlink:href="#i"/><linearGradient id="aq" x1="0.587" y1="101.107" x2="0.587" y2="-22.161" xlink:href="#e"/><linearGradient id="as" x1="0.587" y1="101.107" x2="0.587" y2="-22.161" xlink:href="#i"/><linearGradient id="at" x1="0.45" y1="24.974" x2="0.45" y2="-84.514" xlink:href="#e"/><linearGradient id="av" x1="0.45" y1="24.974" x2="0.45" y2="-84.514" xlink:href="#i"/><linearGradient id="aw" x1="0.5" y1="1.002" x2="0.5" y2="-0.002" xlink:href="#i"/><linearGradient id="ay" x1="0.5" y1="1.002" x2="0.5" y2="-0.002" gradientUnits="objectBoundingBox"><stop offset="0" stop-color="#ed1e79"/><stop offset="1" stop-color="#00d3ff"/></linearGradient><linearGradient id="az" x1="0.495" y1="1.377" x2="0.495" y2="-0.31" xlink:href="#e"/><linearGradient id="ba" x1="0.495" y1="1.377" x2="0.495" y2="-0.31" xlink:href="#i"/><linearGradient id="be" x1="0.506" y1="1.377" x2="0.506" y2="-0.31" xlink:href="#e"/><linearGradient id="bh" x1="0.506" y1="1.377" x2="0.506" y2="-0.31" xlink:href="#i"/><linearGradient id="bi" x1="0.502" y1="1.391" x2="0.502" y2="-0.322" xlink:href="#e"/><linearGradient id="bj" x1="0.502" y1="1.391" x2="0.502" y2="-0.322" xlink:href="#i"/><linearGradient id="bn" x1="0.5" y1="1.002" x2="0.5" y2="-0.002" gradientUnits="objectBoundingBox"><stop offset="0" stop-color="#ed1e79"/><stop offset="1" stop-color="#00d3ff" stop-opacity="0.6"/></linearGradient><linearGradient id="bo" x1="0.502" y1="1.002" x2="0.502" y2="-0.002" gradientUnits="objectBoundingBox"><stop offset="0" stop-color="#fcee21"/><stop offset="1" stop-color="#ff9d7a"/></linearGradient><linearGradient id="bq" x1="0.502" y1="1.002" x2="0.5" y2="0.452" gradientUnits="objectBoundingBox"><stop offset="0" stop-color="#662d91"/><stop offset="0" stop-color="#00d3ff"/><stop offset="1" stop-color="#ffba0c"/></linearGradient></defs><g transform="translate(-74 -36.898)"><g transform="translate(40 -43)"><g transform="translate(34 84)"><g transform="translate(0)"><path class="a" d="M236.766,180.129a27.522,27.522,0,0,0-3.893-5.829.584.584,0,0,0-.073.07,27.038,27.038,0,0,1,3.918,5.881A.351.351,0,0,1,236.766,180.129Z" transform="translate(-225.646 -174.3)"/><path class="a" d="M236.766,180.129a27.522,27.522,0,0,0-3.893-5.829.584.584,0,0,0-.073.07,27.038,27.038,0,0,1,3.918,5.881A.351.351,0,0,1,236.766,180.129Z" transform="translate(-225.646 -174.3)"/><path class="b" d="M232.8,336.968c.024.035.049.052.073.087a32.741,32.741,0,0,0,3.991-7.1l-.073-.157A32.931,32.931,0,0,1,232.8,336.968Z" transform="translate(-225.646 -302.745)"/><path class="b" d="M232.8,336.968c.024.035.049.052.073.087a32.741,32.741,0,0,0,3.991-7.1l-.073-.157A32.931,32.931,0,0,1,232.8,336.968Z" transform="translate(-225.646 -302.745)"/><path class="c" d="M267.9,335.068c.024.035.049.052.073.087a32.262,32.262,0,0,0,4.161-7.5l-.073-.157A34.762,34.762,0,0,1,267.9,335.068Z" transform="translate(-252.205 -300.845)"/><path class="c" d="M267.9,335.068c.024.035.049.052.073.087a32.262,32.262,0,0,0,4.161-7.5l-.073-.157A34.762,34.762,0,0,1,267.9,335.068Z" transform="translate(-252.205 -300.845)"/><path class="d" d="M272.037,180.476a28.079,28.079,0,0,0-4.064-6.176.584.584,0,0,0-.073.07,27.335,27.335,0,0,1,4.088,6.246A.419.419,0,0,1,272.037,180.476Z" transform="translate(-252.205 -174.3)"/><path class="d" d="M272.037,180.476a28.079,28.079,0,0,0-4.064-6.176.584.584,0,0,0-.073.07,27.335,27.335,0,0,1,4.088,6.246A.419.419,0,0,1,272.037,180.476Z" transform="translate(-252.205 -174.3)"/><path class="e" d="M304.373,174.4a.581.581,0,0,0-.073.07c13.554,15.711,1.046,32.8,0,34.136.024.035.049.052.073.087C304.373,208.693,318.584,190.772,304.373,174.4Z" transform="translate(-279.748 -174.383)"/><path class="e" d="M304.373,174.4a.581.581,0,0,0-.073.07c13.554,15.711,1.046,32.8,0,34.136.024.035.049.052.073.087C304.373,208.693,318.584,190.772,304.373,174.4Z" transform="translate(-279.748 -174.383)"/><path class="f" d="M210.554,174.47c-.024-.017-.024-.052-.049-.07,0,0-15.987,13.327,0,34.292a.9.9,0,0,1,.073-.087C195.321,188.528,209.386,175.479,210.554,174.47Z" transform="translate(-203.4 -174.383)"/><path class="g" d="M214.735,180.681a27.034,27.034,0,0,0-3.918-5.881c-1.168,1.027-15.233,14.075,0,34.136a32.93,32.93,0,0,0,3.991-7.168C210.5,192.581,212.277,185.343,214.735,180.681Z" transform="translate(-203.688 -174.713)"/><path class="g" d="M214.735,180.681a27.034,27.034,0,0,0-3.918-5.881c-1.168,1.027-15.233,14.075,0,34.136a32.93,32.93,0,0,0,3.991-7.168C210.5,192.581,212.277,185.343,214.735,180.681Z" transform="translate(-203.688 -174.713)"/><path class="h" d="M214.735,180.681a27.034,27.034,0,0,0-3.918-5.881c-1.168,1.027-15.233,14.075,0,34.136a32.93,32.93,0,0,0,3.991-7.168C210.5,192.581,212.277,185.343,214.735,180.681Z" transform="translate(-203.688 -174.713)"/><path class="i" d="M253.726,174.47c-.024-.017-.024-.052-.049-.07a21.184,21.184,0,0,0-4.477,5.829c.024.052.049.087.073.139A20.661,20.661,0,0,1,253.726,174.47Z" transform="translate(-238.055 -174.383)"/><path class="j" d="M249.5,329.857a39.223,39.223,0,0,0,4.4,7.1.893.893,0,0,1,.073-.087,40.215,40.215,0,0,1-4.4-7.168A1.315,1.315,0,0,0,249.5,329.857Z" transform="translate(-238.282 -302.663)"/><path class="k" d="M248.873,208.061a.748.748,0,0,1,.073-.122c-.024-.052-.049-.087-.073-.139a1.012,1.012,0,0,0-.073.139C248.824,207.974,248.849,208.026,248.873,208.061Z" transform="translate(-237.753 -201.972)"/><path class="k" d="M248.873,208.061a.748.748,0,0,1,.073-.122c-.024-.052-.049-.087-.073-.139a1.012,1.012,0,0,0-.073.139C248.824,207.974,248.849,208.026,248.873,208.061Z" transform="translate(-237.753 -201.972)"/><path class="l" d="M248.873,208.061a.748.748,0,0,1,.073-.122c-.024-.052-.049-.087-.073-.139a1.012,1.012,0,0,0-.073.139C248.824,207.974,248.849,208.026,248.873,208.061Z" transform="translate(-237.753 -201.972)"/><path class="m" d="M249.173,328.9l-.073.157.073.157.073-.157Z" transform="translate(-237.98 -302.002)"/><path class="m" d="M249.173,328.9l-.073.157.073.157.073-.157Z" transform="translate(-237.98 -302.002)"/><path class="n" d="M249.173,328.9l-.073.157.073.157.073-.157Z" transform="translate(-237.98 -302.002)"/><path class="o" d="M257.965,180.946a26.909,26.909,0,0,0-4.088-6.246,21.732,21.732,0,0,0-4.477,5.881c3.845,7.951,2.287,15.711.073,21.087a40.217,40.217,0,0,0,4.4,7.168,33.6,33.6,0,0,0,4.137-7.568C254.072,192.516,255.629,185.557,257.965,180.946Z" transform="translate(-238.207 -174.63)"/><path class="o" d="M257.965,180.946a26.909,26.909,0,0,0-4.088-6.246,21.732,21.732,0,0,0-4.477,5.881c3.845,7.951,2.287,15.711.073,21.087a40.217,40.217,0,0,0,4.4,7.168,33.6,33.6,0,0,0,4.137-7.568C254.072,192.516,255.629,185.557,257.965,180.946Z" transform="translate(-238.207 -174.63)"/><path class="p" d="M257.965,180.946a26.909,26.909,0,0,0-4.088-6.246,21.732,21.732,0,0,0-4.477,5.881c3.845,7.951,2.287,15.711.073,21.087a40.217,40.217,0,0,0,4.4,7.168,33.6,33.6,0,0,0,4.137-7.568C254.072,192.516,255.629,185.557,257.965,180.946Z" transform="translate(-238.207 -174.63)"/><path class="q" d="M249.173,229.53l.073.157c2.214-5.376,3.772-13.136-.073-21.087-.024.035-.049.087-.073.122C252.847,216.551,251.339,224.189,249.173,229.53Z" transform="translate(-237.98 -202.632)"/><path class="r" d="M249.173,229.53l.073.157c2.214-5.376,3.772-13.136-.073-21.087-.024.035-.049.087-.073.122C252.847,216.551,251.339,224.189,249.173,229.53Z" transform="translate(-237.98 -202.632)"/><path class="q" d="M249.173,229.53l.073.157c2.214-5.376,3.772-13.136-.073-21.087-.024.035-.049.087-.073.122C252.847,216.551,251.339,224.189,249.173,229.53Z" transform="translate(-237.98 -202.632)"/><path class="r" d="M249.173,229.53l.073.157c2.214-5.376,3.772-13.136-.073-21.087-.024.035-.049.087-.073.122C252.847,216.551,251.339,224.189,249.173,229.53Z" transform="translate(-237.98 -202.632)"/><path class="r" d="M249.173,229.53l.073.157c2.214-5.376,3.772-13.136-.073-21.087-.024.035-.049.087-.073.122C252.847,216.551,251.339,224.189,249.173,229.53Z" transform="translate(-237.98 -202.632)"/><path class="s" d="M240.953,208.722a.751.751,0,0,0-.073-.122c-2.482,4.663-4.234,11.918.073,21.087l.073-.157C236.84,220.518,238.519,213.367,240.953,208.722Z" transform="translate(-229.832 -202.632)"/><path class="s" d="M240.953,208.722a.751.751,0,0,0-.073-.122c-2.482,4.663-4.234,11.918.073,21.087l.073-.157C236.84,220.518,238.519,213.367,240.953,208.722Z" transform="translate(-229.832 -202.632)"/><path class="s" d="M240.953,208.722a.751.751,0,0,0-.073-.122c-2.482,4.663-4.234,11.918.073,21.087l.073-.157C236.84,220.518,238.519,213.367,240.953,208.722Z" transform="translate(-229.832 -202.632)"/><path class="t" d="M240.953,208.722a.751.751,0,0,0-.073-.122c-2.482,4.663-4.234,11.918.073,21.087l.073-.157C236.84,220.518,238.519,213.367,240.953,208.722Z" transform="translate(-229.832 -202.632)"/><path class="u" d="M241.385,209.3c-2.433,4.645-4.112,11.8.073,20.809C243.624,224.767,245.133,217.129,241.385,209.3Z" transform="translate(-230.265 -203.211)"/><path class="v" d="M241.385,209.3c-2.433,4.645-4.112,11.8.073,20.809C243.624,224.767,245.133,217.129,241.385,209.3Z" transform="translate(-230.265 -203.211)"/><path class="u" d="M241.385,209.3c-2.433,4.645-4.112,11.8.073,20.809C243.624,224.767,245.133,217.129,241.385,209.3Z" transform="translate(-230.265 -203.211)"/><path class="v" d="M241.385,209.3c-2.433,4.645-4.112,11.8.073,20.809C243.624,224.767,245.133,217.129,241.385,209.3Z" transform="translate(-230.265 -203.211)"/><path class="u" d="M241.385,209.3c-2.433,4.645-4.112,11.8.073,20.809C243.624,224.767,245.133,217.129,241.385,209.3Z" transform="translate(-230.265 -203.211)"/><path class="w" d="M241.385,209.3c-2.433,4.645-4.112,11.8.073,20.809C243.624,224.767,245.133,217.129,241.385,209.3Z" transform="translate(-230.265 -203.211)"/><path class="x" d="M285.2,327.557a40.852,40.852,0,0,0,4.6,7.5.9.9,0,0,1,.073-.087,39.914,39.914,0,0,1-4.6-7.568Z" transform="translate(-265.295 -300.763)"/><path class="y" d="M289.621,174.47a.122.122,0,0,1-.049-.07,21.524,21.524,0,0,0-4.672,6.176c.024.052.049.087.073.139A21.5,21.5,0,0,1,289.621,174.47Z" transform="translate(-265.068 -174.383)"/><path class="z" d="M284.573,210.078c.024-.052.049-.087.073-.139-.024-.052-.049-.087-.073-.139-.024.052-.049.087-.073.139A.234.234,0,0,1,284.573,210.078Z" transform="translate(-264.766 -203.624)"/><path class="z" d="M284.573,210.078c.024-.052.049-.087.073-.139-.024-.052-.049-.087-.073-.139-.024.052-.049.087-.073.139A.234.234,0,0,1,284.573,210.078Z" transform="translate(-264.766 -203.624)"/><path class="aa" d="M284.573,210.078c.024-.052.049-.087.073-.139-.024-.052-.049-.087-.073-.139-.024.052-.049.087-.073.139A.234.234,0,0,1,284.573,210.078Z" transform="translate(-264.766 -203.624)"/><path class="ab" d="M284.973,326.5l-.073.157.073.157.073-.157A.232.232,0,0,1,284.973,326.5Z" transform="translate(-265.068 -300.02)"/><path class="ab" d="M284.973,326.5l-.073.157.073.157.073-.157A.232.232,0,0,1,284.973,326.5Z" transform="translate(-265.068 -300.02)"/><path class="ac" d="M284.973,326.5l-.073.157.073.157.073-.157A.232.232,0,0,1,284.973,326.5Z" transform="translate(-265.068 -300.02)"/><path class="ad" d="M289.772,174.8a22.437,22.437,0,0,0-4.672,6.246c3.553,7.621,2.166,15.032.073,20.321a39.377,39.377,0,0,0,4.6,7.568C290.818,207.579,303.326,190.493,289.772,174.8Z" transform="translate(-265.22 -174.713)"/><path class="ad" d="M289.772,174.8a22.437,22.437,0,0,0-4.672,6.246c3.553,7.621,2.166,15.032.073,20.321a39.377,39.377,0,0,0,4.6,7.568C290.818,207.579,303.326,190.493,289.772,174.8Z" transform="translate(-265.22 -174.713)"/><path class="ae" d="M289.772,174.8a22.437,22.437,0,0,0-4.672,6.246c3.553,7.621,2.166,15.032.073,20.321a39.377,39.377,0,0,0,4.6,7.568C290.818,207.579,303.326,190.493,289.772,174.8Z" transform="translate(-265.22 -174.8)"/><path class="af" d="M284.973,230.765l.073.157c2.068-5.289,3.455-12.7-.073-20.321-.024.052-.049.087-.073.139C288.307,218.238,286.993,225.528,284.973,230.765Z" transform="translate(-265.068 -204.284)"/><path class="ag" d="M284.973,230.765l.073.157c2.068-5.289,3.455-12.7-.073-20.321-.024.052-.049.087-.073.139C288.307,218.238,286.993,225.528,284.973,230.765Z" transform="translate(-265.068 -204.284)"/><path class="af" d="M284.973,230.765l.073.157c2.068-5.289,3.455-12.7-.073-20.321-.024.052-.049.087-.073.139C288.307,218.238,286.993,225.528,284.973,230.765Z" transform="translate(-265.068 -204.284)"/><path class="ag" d="M284.973,230.765l.073.157c2.068-5.289,3.455-12.7-.073-20.321-.024.052-.049.087-.073.139C288.307,218.238,286.993,225.528,284.973,230.765Z" transform="translate(-265.068 -204.284)"/><path class="ag" d="M284.973,230.765l.073.157c2.068-5.289,3.455-12.7-.073-20.321-.024.052-.049.087-.073.139C288.307,218.238,286.993,225.528,284.973,230.765Z" transform="translate(-265.068 -204.284)"/><path class="ah" d="M277.238,210.739c-.024-.052-.049-.087-.073-.139-2.336,4.611-3.893,11.57.073,20.321l.073-.157C273.491,222.17,274.951,215.315,277.238,210.739Z" transform="translate(-257.431 -204.284)"/><path class="ah" d="M277.238,210.739c-.024-.052-.049-.087-.073-.139-2.336,4.611-3.893,11.57.073,20.321l.073-.157C273.491,222.17,274.951,215.315,277.238,210.739Z" transform="translate(-257.431 -204.284)"/><path class="ah" d="M277.238,210.739c-.024-.052-.049-.087-.073-.139-2.336,4.611-3.893,11.57.073,20.321l.073-.157C273.491,222.17,274.951,215.315,277.238,210.739Z" transform="translate(-257.431 -204.284)"/><path class="ai" d="M277.238,210.739c-.024-.052-.049-.087-.073-.139-2.336,4.611-3.893,11.57.073,20.321l.073-.157C273.491,222.17,274.951,215.315,277.238,210.739Z" transform="translate(-257.431 -204.284)"/><path class="aj" d="M277.671,211.4c-2.287,4.576-3.772,11.431.073,20.026C279.788,226.189,281.1,218.9,277.671,211.4Z" transform="translate(-257.864 -204.945)"/><path class="ak" d="M277.671,211.4c-2.287,4.576-3.772,11.431.073,20.026C279.788,226.189,281.1,218.9,277.671,211.4Z" transform="translate(-257.864 -204.945)"/><path class="aj" d="M277.671,211.4c-2.287,4.576-3.772,11.431.073,20.026C279.788,226.189,281.1,218.9,277.671,211.4Z" transform="translate(-257.864 -204.945)"/><path class="ak" d="M277.671,211.4c-2.287,4.576-3.772,11.431.073,20.026C279.788,226.189,281.1,218.9,277.671,211.4Z" transform="translate(-257.864 -204.945)"/><path class="aj" d="M277.671,211.4c-2.287,4.576-3.772,11.431.073,20.026C279.788,226.189,281.1,218.9,277.671,211.4Z" transform="translate(-257.864 -204.945)"/><path class="al" d="M277.671,211.4c-2.287,4.576-3.772,11.431.073,20.026C279.788,226.189,281.1,218.9,277.671,211.4Z" transform="translate(-257.864 -204.945)"/></g></g></g><g transform="translate(32.519 -114.196)"><path class="am" d="M38.092-122.39q0,.7.032,1.208t.064,1.081l2.193.318v.667a11.769,11.769,0,0,1-1.764.731,13.733,13.733,0,0,1-1.859.477h-.795a4.885,4.885,0,0,1-.381-1.605q-.064-.874-.1-1.923h-.159a4.4,4.4,0,0,1-.493,1.287,4.324,4.324,0,0,1-.954,1.16,4.842,4.842,0,0,1-1.383.826,4.847,4.847,0,0,1-1.812.318,4.375,4.375,0,0,1-3.163-1.176A4.081,4.081,0,0,1,26.3-122.1a4.449,4.449,0,0,1,.588-2.4,3.987,3.987,0,0,1,1.732-1.478,9.9,9.9,0,0,1,2.829-.779q1.685-.238,3.909-.366a18.257,18.257,0,0,0,.079-2.463,5.914,5.914,0,0,0-.35-1.875,2.623,2.623,0,0,0-.89-1.208,2.554,2.554,0,0,0-1.542-.429q-.445,0-1,.048a3.7,3.7,0,0,0-1.1.27l-1.494,3.814h-.826q-.318-.954-.556-1.971a12.213,12.213,0,0,1-.3-2,10.743,10.743,0,0,1,2.686-1.144,12.206,12.206,0,0,1,3.29-.413,6.1,6.1,0,0,1,2.59.461,3.661,3.661,0,0,1,1.478,1.192,4.051,4.051,0,0,1,.667,1.621,10.107,10.107,0,0,1,.159,1.78q0,1.907-.079,3.671T38.092-122.39Zm-6.134,2.575a2.959,2.959,0,0,0,1.4-.318,3.762,3.762,0,0,0,1.017-.763,4.619,4.619,0,0,0,.667-.906,4.172,4.172,0,0,0,.35-.779v-3.337a19.49,19.49,0,0,0-3.019.191,5.077,5.077,0,0,0-1.843.6,2.2,2.2,0,0,0-.922,1.033,3.7,3.7,0,0,0-.254,1.414,2.976,2.976,0,0,0,.7,2.114A2.486,2.486,0,0,0,31.957-119.815Zm29.083,1.589H54.206v-.795a11.554,11.554,0,0,1,1.875-.763v-7.533a8.632,8.632,0,0,0-.7-3.814,2.586,2.586,0,0,0-2.543-1.4,3.788,3.788,0,0,0-1.478.286,4.006,4.006,0,0,0-1.208.779,5.407,5.407,0,0,0-.906,1.112,6.179,6.179,0,0,0-.6,1.287v9.281a5.63,5.63,0,0,1,1.907.763v.795H43.686v-.795a10.585,10.585,0,0,1,2.1-.763v-12.491l-2.1-.254v-.826a14.334,14.334,0,0,1,1.907-.636q1.081-.286,2.257-.509h.795v3.56h.032a7.055,7.055,0,0,1,1.923-2.511,4.578,4.578,0,0,1,3.035-1.049,7.871,7.871,0,0,1,2.273.3,3.52,3.52,0,0,1,1.669,1.065,5.1,5.1,0,0,1,1.017,2.05,12.7,12.7,0,0,1,.35,3.258v8.041a5.557,5.557,0,0,1,2.1.763Zm13.985-3.147a4.535,4.535,0,0,1-.54,1.335,4.793,4.793,0,0,1-.938,1.128,4.319,4.319,0,0,1-1.271.779,4.112,4.112,0,0,1-1.542.286,5.59,5.59,0,0,1-4.7-2q-1.557-2-1.557-6.23,0-4.068,1.987-6.2a6.971,6.971,0,0,1,5.356-2.13,11.831,11.831,0,0,1,1.843.111,8.471,8.471,0,0,1,1.462.4V-139.9l-2.416-.254v-.826a13.938,13.938,0,0,1,2.145-.667q1.224-.286,2.336-.477h.795v22.09l2.1.254v.667a14.907,14.907,0,0,1-1.907.763,11.088,11.088,0,0,1-1.939.445h-.795l-.286-3.464Zm-3.655,1.557a3.232,3.232,0,0,0,2.479-.985,5.431,5.431,0,0,0,1.271-2.67v-8.963a3.757,3.757,0,0,0-1.271-.445,11.3,11.3,0,0,0-1.875-.127,3.646,3.646,0,0,0-3.306,1.891,9.666,9.666,0,0,0-1.144,5.038,12.568,12.568,0,0,0,.222,2.431,6.76,6.76,0,0,0,.7,1.987,3.907,3.907,0,0,0,1.192,1.351A2.978,2.978,0,0,0,71.37-119.815Zm12.27-6.35a10.989,10.989,0,0,1,.524-3.544,7.185,7.185,0,0,1,1.51-2.606,6.473,6.473,0,0,1,2.368-1.621,8.149,8.149,0,0,1,3.067-.556,8.712,8.712,0,0,1,3.4.6,5.99,5.99,0,0,1,2.336,1.7,7.059,7.059,0,0,1,1.335,2.622,12.551,12.551,0,0,1,.429,3.4A8.657,8.657,0,0,1,96.576-120a7.15,7.15,0,0,1-5.467,2.161,8.492,8.492,0,0,1-3.306-.588,6.028,6.028,0,0,1-2.32-1.685,7.285,7.285,0,0,1-1.383-2.638A11.9,11.9,0,0,1,83.64-126.166Zm3.051,0a12.977,12.977,0,0,0,.27,2.7,6.773,6.773,0,0,0,.858,2.209,4.292,4.292,0,0,0,1.542,1.478,4.571,4.571,0,0,0,2.288.54,3.261,3.261,0,0,0,2.813-1.685,9.818,9.818,0,0,0,1.1-5.244,12.913,12.913,0,0,0-.27-2.718,7.01,7.01,0,0,0-.842-2.193,4.339,4.339,0,0,0-1.462-1.478,4.026,4.026,0,0,0-2.13-.54,3.5,3.5,0,0,0-3.02,1.685A9.483,9.483,0,0,0,86.691-126.166Zm18.181-6.1-2.1-.254v-.826a10.292,10.292,0,0,1,2.018-.715q1.1-.27,2.145-.429h.795v14.907a10.579,10.579,0,0,1-.572,3.751,8.6,8.6,0,0,1-1.335,2.416,5.679,5.679,0,0,1-1.557,1.367,5.978,5.978,0,0,1-1.271.572l-.381-.6a2.545,2.545,0,0,0,.779-.667,4.87,4.87,0,0,0,.731-1.319,10.368,10.368,0,0,0,.54-2.05,17.206,17.206,0,0,0,.207-2.861Zm8.677,6.1a10.989,10.989,0,0,1,.524-3.544,7.185,7.185,0,0,1,1.51-2.606,6.473,6.473,0,0,1,2.368-1.621,8.149,8.149,0,0,1,3.067-.556,8.712,8.712,0,0,1,3.4.6,5.99,5.99,0,0,1,2.336,1.7,7.059,7.059,0,0,1,1.335,2.622,12.55,12.55,0,0,1,.429,3.4A8.657,8.657,0,0,1,126.485-120a7.15,7.15,0,0,1-5.467,2.161,8.492,8.492,0,0,1-3.306-.588,6.029,6.029,0,0,1-2.32-1.685,7.285,7.285,0,0,1-1.383-2.638A11.9,11.9,0,0,1,113.549-126.166Zm3.051,0a12.978,12.978,0,0,0,.27,2.7,6.773,6.773,0,0,0,.858,2.209,4.292,4.292,0,0,0,1.542,1.478,4.571,4.571,0,0,0,2.288.54,3.261,3.261,0,0,0,2.813-1.685,9.818,9.818,0,0,0,1.1-5.244,12.913,12.913,0,0,0-.27-2.718,7.01,7.01,0,0,0-.842-2.193,4.339,4.339,0,0,0-1.462-1.478,4.026,4.026,0,0,0-2.13-.54,3.5,3.5,0,0,0-3.019,1.685A9.483,9.483,0,0,0,116.6-126.166Z" transform="translate(78 304.165)"/><path class="an" d="M20.333,14.991a6.359,6.359,0,1,0-9.539,5.456l1.06-1.836a4.138,4.138,0,0,1-2.12-3.62,4.24,4.24,0,0,1,8.479,0,4.138,4.138,0,0,1-2.12,3.62l1.06,1.836A6.315,6.315,0,0,0,20.333,14.991ZM13.974,4.5a10.576,10.576,0,0,0-10.6,10.491,10.4,10.4,0,0,0,3.523,7.8c.65-.65.664-.672,1.5-1.508A8.581,8.581,0,0,1,6.61,19.135a8.137,8.137,0,0,1-1.115-4.143,8.48,8.48,0,0,1,16.958,0,8.311,8.311,0,0,1-3.522,6.789c.063.109-.041.45,1.226,1.717a10.382,10.382,0,0,0,4.416-8.507A10.576,10.576,0,0,0,13.974,4.5Z" transform="translate(170.434 146.595)"/><circle class="ao" cx="1.881" cy="1.881" r="1.881" transform="translate(182.481 159.153)"/><path class="ae" d="M585.33-94.5l-2.1-.254v-.826a10.3,10.3,0,0,1,2.018-.715q1.1-.27,2.145-.429h.795v14.907a10.577,10.577,0,0,1-.572,3.751,8.6,8.6,0,0,1-1.335,2.416,5.678,5.678,0,0,1-1.557,1.367,5.983,5.983,0,0,1-1.271.572l-.381-.6a2.545,2.545,0,0,0,.779-.667,4.869,4.869,0,0,0,.731-1.319,10.362,10.362,0,0,0,.54-2.05,17.2,17.2,0,0,0,.207-2.861Zm8.677,6.1a10.988,10.988,0,0,1,.524-3.544,7.186,7.186,0,0,1,1.51-2.606,6.473,6.473,0,0,1,2.368-1.621,8.149,8.149,0,0,1,3.067-.556,8.712,8.712,0,0,1,3.4.6,5.989,5.989,0,0,1,2.336,1.7,7.062,7.062,0,0,1,1.335,2.622,12.55,12.55,0,0,1,.429,3.4,8.657,8.657,0,0,1-2.034,6.166,7.15,7.15,0,0,1-5.467,2.161,8.492,8.492,0,0,1-3.305-.588,6.03,6.03,0,0,1-2.32-1.685,7.287,7.287,0,0,1-1.383-2.638A11.9,11.9,0,0,1,594.007-88.4Zm3.051,0a12.977,12.977,0,0,0,.27,2.7,6.774,6.774,0,0,0,.858,2.209,4.293,4.293,0,0,0,1.542,1.478,4.571,4.571,0,0,0,2.288.54,3.262,3.262,0,0,0,2.813-1.685,9.817,9.817,0,0,0,1.1-5.244,12.921,12.921,0,0,0-.27-2.718,7.01,7.01,0,0,0-.842-2.193,4.338,4.338,0,0,0-1.462-1.478,4.027,4.027,0,0,0-2.13-.54,3.5,3.5,0,0,0-3.019,1.685A9.483,9.483,0,0,0,597.058-88.4Z" transform="translate(-402.458 266.355)"/><path class="ap" d="M366.817-121.373a4.537,4.537,0,0,1-.54,1.335,4.8,4.8,0,0,1-.938,1.128,4.321,4.321,0,0,1-1.271.779,4.113,4.113,0,0,1-1.542.286,5.589,5.589,0,0,1-4.7-2q-1.557-2-1.557-6.23,0-4.068,1.987-6.2a6.971,6.971,0,0,1,5.356-2.13,11.831,11.831,0,0,1,1.843.111,8.472,8.472,0,0,1,1.462.4V-139.9l-2.416-.254v-.826a13.937,13.937,0,0,1,2.145-.667q1.224-.286,2.336-.477h.795v22.09l2.1.254v.667a14.9,14.9,0,0,1-1.907.763,11.09,11.09,0,0,1-1.939.445h-.795l-.286-3.464Zm-3.655,1.557a3.232,3.232,0,0,0,2.479-.985,5.43,5.43,0,0,0,1.271-2.67v-8.963a3.757,3.757,0,0,0-1.271-.445,11.3,11.3,0,0,0-1.875-.127,3.646,3.646,0,0,0-3.306,1.891,9.666,9.666,0,0,0-1.144,5.038,12.565,12.565,0,0,0,.223,2.431,6.758,6.758,0,0,0,.7,1.987,3.907,3.907,0,0,0,1.192,1.351A2.979,2.979,0,0,0,363.162-119.815Zm12.27-6.35a10.99,10.99,0,0,1,.524-3.544,7.185,7.185,0,0,1,1.51-2.606,6.472,6.472,0,0,1,2.368-1.621,8.149,8.149,0,0,1,3.067-.556,8.712,8.712,0,0,1,3.4.6,5.99,5.99,0,0,1,2.336,1.7,7.06,7.06,0,0,1,1.335,2.622,12.552,12.552,0,0,1,.429,3.4A8.657,8.657,0,0,1,388.368-120a7.15,7.15,0,0,1-5.467,2.161,8.492,8.492,0,0,1-3.305-.588,6.028,6.028,0,0,1-2.32-1.685,7.284,7.284,0,0,1-1.383-2.638A11.9,11.9,0,0,1,375.432-126.166Zm3.051,0a12.977,12.977,0,0,0,.27,2.7,6.774,6.774,0,0,0,.858,2.209,4.293,4.293,0,0,0,1.542,1.478,4.571,4.571,0,0,0,2.288.54,3.261,3.261,0,0,0,2.813-1.685,9.817,9.817,0,0,0,1.1-5.244,12.908,12.908,0,0,0-.27-2.718,7.009,7.009,0,0,0-.842-2.193,4.339,4.339,0,0,0-1.462-1.478,4.026,4.026,0,0,0-2.13-.54,3.5,3.5,0,0,0-3.02,1.685A9.483,9.483,0,0,0,378.484-126.166Z" transform="translate(-213.792 304.186)"/><path class="am" d="M-47.825-88.513h-7.363v-.829a11.982,11.982,0,0,1,2.189-.8v-19.668l-2.189-.265v-.862a14.006,14.006,0,0,1,2.172-.746q1.111-.282,2.172-.448h.829v3.715h.033a6.632,6.632,0,0,1,1.857-2.7,4.658,4.658,0,0,1,3.118-1.012,5.619,5.619,0,0,1,4.577,1.957q1.625,1.957,1.625,6.368a12.246,12.246,0,0,1-.547,3.781A8.053,8.053,0,0,1-40.91-97.17a6.845,6.845,0,0,1-2.454,1.791,7.912,7.912,0,0,1-3.2.63,9.653,9.653,0,0,1-1.924-.149,8,8,0,0,1-1.526-.514v5.274a5.27,5.27,0,0,1,1.061.249,5.811,5.811,0,0,1,1.128.547Zm1.758-21.559a3.373,3.373,0,0,0-2.587,1.028,5.913,5.913,0,0,0-1.36,2.819v9.287a4.7,4.7,0,0,0,1.343.547,8.421,8.421,0,0,0,1.94.182,3.577,3.577,0,0,0,1.973-.564,4.716,4.716,0,0,0,1.493-1.592,8.6,8.6,0,0,0,.945-2.4,12.957,12.957,0,0,0,.332-3.035,13.548,13.548,0,0,0-.216-2.5,6.4,6.4,0,0,0-.7-1.99,3.5,3.5,0,0,0-1.26-1.31A3.665,3.665,0,0,0-46.067-110.072Z" transform="translate(139.669 281.196)"/></g></g></svg>