<svg xmlns="http://www.w3.org/2000/svg" width="23.172" height="23.171" viewBox="0 0 23.172 23.171"><defs><style>.a{fill:#aaa;}</style></defs><g transform="translate(0 -0.001)"><path class="a" d="M21.724,19.448H1.448A1.45,1.45,0,0,1,0,18V5.448A1.45,1.45,0,0,1,1.448,4h2.9a.483.483,0,1,1,0,.965h-2.9a.484.484,0,0,0-.483.483V18a.484.484,0,0,0,.483.483H21.724A.484.484,0,0,0,22.206,18V5.448a.484.484,0,0,0-.483-.483h-2.9a.483.483,0,1,1,0-.965h2.9a1.45,1.45,0,0,1,1.448,1.448V18A1.45,1.45,0,0,1,21.724,19.448Z" transform="translate(0 -0.138)"/><path class="a" d="M16.172,23.965H7.483a.483.483,0,1,1,0-.965h8.689a.483.483,0,1,1,0,.965Z" transform="translate(-0.242 -0.794)"/><path class="a" d="M10.483,23.827A.483.483,0,0,1,10,23.345V19.483a.483.483,0,0,1,.965,0v3.862A.483.483,0,0,1,10.483,23.827Z" transform="translate(-0.345 -0.656)"/><path class="a" d="M13.483,23.827A.483.483,0,0,1,13,23.345V19.483a.483.483,0,0,1,.965,0v3.862A.483.483,0,0,1,13.483,23.827Z" transform="translate(-0.449 -0.656)"/><path class="a" d="M11.79,11.674a.478.478,0,0,1-.2-.045L6.28,9.163A.481.481,0,0,1,6,8.725V3.037A.482.482,0,0,1,6.686,2.6l5.307,2.466a.482.482,0,0,1,.28.437v5.689a.482.482,0,0,1-.483.483ZM6.965,8.417l4.342,2.018V5.811L6.965,3.793Z" transform="translate(-0.207 -0.088)"/><path class="a" d="M11.986,11.674a.482.482,0,0,1-.483-.483V5.5a.482.482,0,0,1,.28-.437L17.09,2.6a.482.482,0,0,1,.686.438v5.69a.482.482,0,0,1-.28.437L12.189,11.63a.492.492,0,0,1-.2.044Zm.483-5.863v4.625L16.81,8.417V3.793Zm4.825,2.915h.01Z" transform="translate(-0.397 -0.088)"/><path class="a" d="M17.1,3.431a.476.476,0,0,1-.2-.045l-5.1-2.37L6.685,3.386a.482.482,0,1,1-.406-.875L11.593.045a.482.482,0,0,1,.406,0l5.307,2.466a.482.482,0,0,1-.2.92Z" transform="translate(-0.207)"/><path class="a" d="M14.8,6.8a.483.483,0,0,1-.483-.483V4.422L9.335,2.048a.483.483,0,1,1,.416-.871l5.219,2.489a.487.487,0,0,1,.307.447v2.2A.483.483,0,0,1,14.8,6.8Z" transform="translate(-0.313 -0.039)"/></g></svg>